<?xml version="1.0" standalone="no"?>
<!DOCTYPE svg PUBLIC "-//W3C//DTD SVG 20010904//EN"
 "http://www.w3.org/TR/2001/REC-SVG-20010904/DTD/svg10.dtd">
<svg version="1.0" xmlns="http://www.w3.org/2000/svg"
 width="500.000000pt" height="500.000000pt" viewBox="0 0 500.000000 500.000000"
 preserveAspectRatio="xMidYMid meet">
<metadata>
Created by potrace 1.14, written by Peter Selinger 2001-2017
</metadata>
<g transform="translate(0.000000,500.000000) scale(0.100000,-0.100000)"
fill="#000000" stroke="none">
<path d="M1210 4853 c-223 -27 -405 -125 -541 -293 -76 -93 -147 -255 -163
-371 -8 -54 -10 -3158 -2 -3166 4 -4 524 -7 656 -4 l36 1 0 1367 c0 753 3
1384 7 1403 27 165 144 296 309 349 21 7 68 14 105 16 162 7 319 -81 397 -224
58 -108 56 -37 56 -1533 0 -1305 1 -1378 18 -1379 20 -1 663 -1 675 0 4 1 7
634 6 1408 -1 1534 2 1474 -58 1653 -32 93 -93 224 -111 235 -27 17 18 21 257
20 l258 0 5 -1660 5 -1660 345 0 345 0 5 1660 5 1660 335 1 c184 1 341 2 348
3 9 1 12 60 12 262 l0 260 -1522 -5 c-838 -3 -1539 -6 -1558 -7 -19 -1 -73 0
-120 2 -47 3 -96 3 -110 2z"/>
<path d="M2380 947 c-209 -47 -343 -225 -327 -435 13 -171 125 -306 299 -361
86 -27 239 -24 319 8 123 47 208 129 249 238 87 233 -38 477 -280 545 -68 19
-187 21 -260 5z m197 -226 c86 -39 121 -169 75 -274 -53 -121 -229 -128 -297
-13 -37 64 -39 153 -4 217 43 79 139 109 226 70z"/>
<path d="M3327 945 c-86 -24 -154 -64 -210 -125 -177 -190 -125 -510 101 -633
143 -77 354 -73 521 10 l56 28 3 173 2 173 -117 -3 -118 -3 0 -100 c0 -97 0
-99 -25 -106 -139 -39 -251 43 -253 183 -1 97 43 166 121 187 77 22 144 9 204
-40 46 -36 43 -37 148 59 l65 60 -20 22 c-32 36 -95 75 -160 100 -73 28 -242
36 -318 15z"/>
<path d="M714 942 l-192 -2 0 -395 -1 -395 272 0 c278 0 332 6 403 43 137 71
148 260 19 342 l-43 27 38 38 c82 82 78 197 -9 272 -73 62 -161 75 -487 70z
m260 -205 c11 -8 19 -26 19 -42 0 -43 -26 -55 -120 -55 l-83 0 0 55 0 55 83 0
c53 0 90 -5 101 -13z m26 -290 c17 -9 26 -22 28 -44 5 -54 -39 -68 -205 -64
l-33 1 0 60 0 60 93 0 c54 0 102 -6 117 -13z"/>
<path d="M1390 545 l0 -395 315 0 315 0 0 106 0 105 -112 -1 c-62 -1 -142 -1
-178 -1 l-66 1 0 288 0 287 -137 3 -137 3 0 -396z"/>
</g>
</svg>
